<?xml version="1.0" encoding="utf-8"?>
<!-- Generator: Adobe Illustrator 22.0.1, SVG Export Plug-In . SVG Version: 6.00 Build 0)  -->
<svg version="1.2" baseProfile="tiny" id="Layer_1" xmlns="http://www.w3.org/2000/svg" xmlns:xlink="http://www.w3.org/1999/xlink"
	 x="0px" y="0px" viewBox="0 0 90 90" xml:space="preserve">
<circle fill="#F18500" cx="45" cy="45" r="44.5"/>
<path fill="#FFFFFF" d="M69.3,22H55.7v-3.8c0-3-2.5-5.5-5.6-5.5H39.5c-3,0-5.1,2.3-5.1,5.5V22H20.7c-4.2,0-7.7,3.4-7.7,7.7v30
	c0,4.2,3.4,7.7,7.7,7.7h48.6c4.2,0,7.7-3.4,7.7-7.7v-30C77,25.4,73.6,22,69.3,22z M37,18.2c0-1.4,0.8-2.9,2.5-2.9H50
	c1.6,0,3,1.3,3,2.9V22H37V18.2z M74.3,59.7c0,2.8-2.2,5-5,5H20.7c-2.8,0-5-2.2-5-5v-30c0-2.8,2.2-5,5-5h48.6c2.8,0,5,2.2,5,5
	L74.3,59.7z M59.7,38.7l-8,0l0-8c-4.7,0-11.4,0-13.3,0v8c-1.5,0-6.7,0-8,0c0,1.8,0,11.3,0,13.3l8,0c0,1.5,0,6,0,8
	c1.8,0,10.7,0,13.3,0l0-8c1.5,0,6,0,8,0C59.7,50.2,59.7,40.7,59.7,38.7z M57,49.3h-8c0,0,0,6.5,0,8h-8c0-1.5,0-8,0-8l-8,0v-8l8,0
	c0,0,0-6.5,0-8h8v8c0,0,6.5,0,8,0V49.3z"/>
</svg>
