<?xml version="1.0" encoding="utf-8"?>
<!-- Generator: Adobe Illustrator 22.0.1, SVG Export Plug-In . SVG Version: 6.00 Build 0)  -->
<svg version="1.2" baseProfile="tiny" id="Layer_1" xmlns="http://www.w3.org/2000/svg" xmlns:xlink="http://www.w3.org/1999/xlink"
	 x="0px" y="0px" viewBox="0 0 90 90" xml:space="preserve">
<circle fill="#EC017E" cx="45" cy="45" r="44.5"/>
<path fill="#FFFFFF" d="M70.3,30.3l-9-9.3L53,13L24.9,40.7c-6.5,6.5-6.5,17.2,0,23.7l7.7,7.7c3.2,3.2,7.4,4.9,11.9,4.9
	c4.5,0,8.7-1.7,11.9-4.9c6.5-6.5,6.5-17.2,0-23.7l-2-2L70.3,30.3z M27.1,41.3l3.7-3.7l3.4,3.4l-3.8,3.8L27,41.4L27.1,41.3z
	 M27.8,62.6c0.1,0.6,0.2,1.2,0.3,1.7c0,0,0,0.1,0,0.1c0,0.1,0.1,0.3,0.1,0.4c0,0,0,0,0,0l-2-2c-5.5-5.5-5.7-14.3-0.7-20.1
	c0.8,0.8,3.4,3.5,4.7,4.8L37,41c-4.7-4.9-3.9-4.1-4.7-4.9l20.7-20.7l6.2,6.2c-1.7,1.7-3.4,3.4-5.2,5.2c-3.6,3.6-7.1,7.1-10.7,10.7
	c-3,3-6.1,6.1-9.1,9.1c-1.6,1.6-3.2,3.2-4.4,5.2c-0.1,0.3-0.3,0.5-0.4,0.8C28,55.7,27.3,59.2,27.8,62.6z M52.1,45.6
	c-0.2,0.2-0.3,0.5-0.3,0.7s0.1,0.5,0.3,0.7l2.8,2.8c5.7,5.7,5.7,15.1,0,20.9c-2.8,2.8-6.5,4.3-10.4,4.3c-3.9,0-7.6-1.5-10.4-4.3
	c-0.7-0.7-1.3-1.5-1.9-2.3c-0.1-0.2-0.3-0.4-0.4-0.6C28.3,62,29.3,54.5,34,49.8l26.6-26.6l7,7L52.1,45.6z"/>
</svg>
