<svg width="64" height="64" viewBox="0 0 64 64" fill="none" xmlns="http://www.w3.org/2000/svg">
<path d="M31.9989 0C27.1753 0 22.6111 1.082 18.51 2.9945C16.5429 1.14437 13.8803 0 10.9464 0C4.91002 0 -0.000976562 4.81687 -0.000976562 10.7369C-0.000976562 12.9634 1.3624 15.7694 3.0449 18.3916C1.09965 22.5229 -0.000976562 27.1309 -0.000976562 31.9999C-0.000976562 49.6724 14.324 64 31.9989 64C49.6738 64 63.9988 49.6724 63.9988 32.0001C63.9988 14.3279 49.6739 0 31.9989 0ZM2.5254 10.7369C2.5254 6.20038 6.29715 2.52638 10.9464 2.52638C15.5965 2.52638 19.3674 6.2005 19.3674 10.7369C19.3674 15.2708 10.9464 24.4211 10.9464 24.4211C10.9464 24.4211 2.5254 15.2708 2.5254 10.7369ZM2.52515 31.9995C2.52527 28.0505 3.31265 24.283 4.72902 20.8379C6.57915 23.3541 8.4199 25.4062 9.08777 26.1314L10.9463 28.1516L12.8048 26.1314C14.323 24.4825 21.8935 15.9899 21.8935 10.7369C21.8935 8.63 21.2629 6.66862 20.19 5.00887C22.2195 4.117 24.3668 3.446 26.6026 3.029L25.9179 4.26013C25.587 4.85963 25.4639 5.503 25.4606 6.138C25.4675 6.93713 25.6543 7.743 26.1511 8.45212L26.1495 8.4505L28.0703 11.1486C28.1755 11.2918 28.3161 11.5872 28.408 11.9158C28.5023 12.2441 28.5554 12.6105 28.5545 12.896C28.5554 13.0256 28.5436 13.1394 28.5293 13.2203L28.5301 13.2176L28.0315 15.9342C28.0046 16.1154 27.8463 16.4706 27.6123 16.7654C27.3849 17.0651 27.0801 17.3067 26.9116 17.3784L23.534 18.9371C22.4536 19.4397 21.8211 20.5076 21.8211 21.6217C21.8211 22.0301 21.9079 22.4529 22.0914 22.8512L23.5171 25.9551C23.5913 26.1134 23.6763 26.3888 23.7328 26.6954C23.8406 27.2731 23.836 27.9876 23.7588 28.3214L23.742 28.3896L23.3538 30.0756C23.2318 30.6753 22.6741 31.4002 22.1276 31.6747L19.6324 32.9986C19.5044 33.0711 19.2139 33.1476 18.9065 33.1444C18.5351 33.1502 18.1495 33.0331 18.0054 32.9314L15.9641 31.6169C15.2863 31.1883 14.0369 31.0282 13.2925 31.0233C12.2952 31.6135 9.39547 32.6478 8.7709 33.6841C7.5562 35.701 10.142 37.1169 10.6774 38.607C10.8247 39.0079 10.8593 39.4825 10.8138 39.7126C10.6515 40.4898 10.5229 41.2318 10.1156 41.9275C9.67469 42.7041 9.00072 43.2364 8.34552 43.8239C7.65677 44.4446 6.76652 45.3734 6.13165 46.1219C3.83627 41.9245 2.52515 37.1128 2.52515 31.9995ZM23.7009 55.301L22.3789 59.8526C16.2735 57.7381 11.0709 53.6766 7.52577 48.405C7.64027 48.2635 7.76315 48.1102 7.89377 47.9502C8.3924 47.3314 9.42052 46.2526 10.0369 45.7026L11.071 44.7746C12.0386 43.8985 12.7869 42.5967 13.0626 41.3213C13.1907 40.7056 13.3666 40.0847 13.3666 39.4518C13.3658 38.8631 13.2514 38.2854 13.0525 37.7373C12.8504 37.1908 12.5693 36.6729 12.1464 36.2281L11.002 35.0331L10.9994 35.0315L10.9548 34.9709L11.0154 34.9212L13.0609 33.7111L13.0635 33.7103C13.1856 33.6319 13.4828 33.5451 13.7936 33.5485C14.1305 33.5443 14.4665 33.647 14.5995 33.7405L16.6391 35.0543C17.3449 35.4998 18.1289 35.6639 18.9085 35.6698C19.5553 35.6664 20.2061 35.5503 20.8184 35.2301L23.3136 33.9062C23.9485 33.5635 24.4548 33.0742 24.8858 32.5202C25.3103 31.9602 25.652 31.3438 25.818 30.6424L26.2256 28.8706C26.3133 28.4724 26.3478 28.0656 26.3486 27.6479C26.3478 27.178 26.3031 26.6997 26.2173 26.2356C26.1305 25.7708 26.0068 25.3236 25.8139 24.9009L24.3865 21.7935L24.3849 21.7901L24.3488 21.6226C24.3488 21.4592 24.4439 21.2976 24.5938 21.2319L27.9724 19.6731C28.6444 19.3564 29.1723 18.8715 29.6085 18.3148C30.0396 17.7531 30.3774 17.1208 30.5163 16.3905L31.0149 13.6746L31.0158 13.672C31.063 13.4134 31.0814 13.155 31.0824 12.8973C31.0808 12.3339 30.9931 11.7671 30.8374 11.2224C30.6791 10.6775 30.4609 10.1562 30.1283 9.6855L28.2083 6.98825L28.2074 6.98663C28.102 6.85363 27.9809 6.4915 27.9868 6.14125C27.9841 5.86513 28.0558 5.60813 28.1249 5.492L29.719 2.62713C30.4735 2.5665 31.2314 2.526 31.9995 2.526C46.6505 2.526 58.8349 13.2729 61.0934 27.2973L59.965 26.6699C59.4976 26.4121 58.9933 26.2438 58.4651 26.1216C57.9371 26.0021 57.394 25.9355 56.8618 25.9347C56.5721 25.9347 56.2866 25.9541 56.0003 26.0046L55.7669 26.0459C53.635 22.0755 49.4448 19.3681 44.6313 19.3681C37.6663 19.3681 31.9998 25.0346 31.9998 31.9996C31.9998 36.2565 36.1791 42.4096 39.4001 46.52L37.4725 48.6876C37.3573 48.8241 37.0633 49.0379 36.7273 49.1777C36.3946 49.3242 36.0199 49.4026 35.7959 49.3993L35.7159 49.3966L32.0333 49.1129L31.9406 49.0926L31.9364 49.091V49.0784L31.9481 49.0026L31.9515 48.9934L32.6084 46.8047C32.701 46.494 32.7406 46.1824 32.7406 45.88C32.7374 44.6948 32.1353 43.5029 31.1248 42.8644L29.6478 41.9415C29.1416 41.6258 28.5756 41.4816 28.025 41.4825C27.0869 41.4841 26.1479 41.8918 25.5281 42.7103L21.0508 48.68C20.6549 49.2063 20.4629 49.8329 20.4629 50.4443C20.462 51.3343 20.868 52.2261 21.6401 52.8063L23.278 54.034C23.368 54.0989 23.4986 54.2513 23.5879 54.4509C23.6805 54.6479 23.7319 54.8845 23.7303 55.0664C23.7304 55.1629 23.7169 55.2439 23.7009 55.301ZM54.7359 32.0009C54.7359 37.5799 44.6306 48.8421 44.6306 48.8421C44.6306 48.8421 34.5254 37.5798 34.5254 32.0009C34.5254 26.4178 39.0491 21.8955 44.6306 21.8955C50.2113 21.8955 54.7359 26.4176 54.7359 32.0009ZM31.9989 61.4736C29.5164 61.4736 27.1046 61.1611 24.7998 60.5801L26.1278 56.0033C26.2178 55.6891 26.2565 55.375 26.2565 55.0668C26.2549 54.4798 26.1219 53.9147 25.8816 53.3926C25.64 52.873 25.2914 52.3888 24.7928 52.0125L23.1556 50.7848C22.9752 50.6508 22.9312 50.3827 23.0715 50.1961L27.5499 44.2256C28.0407 43.5192 29.3498 44.735 29.7849 45.007C30.104 45.1992 30.2917 45.7289 30.1883 46.0789L29.534 48.2616C29.4498 48.5345 29.4103 48.8108 29.4103 49.0784C29.4076 49.7284 29.6578 50.3719 30.1066 50.8359C30.553 51.305 31.1811 51.5844 31.8405 51.6325L35.5231 51.9163C35.615 51.9231 35.7059 51.9264 35.7969 51.9264C36.4739 51.923 37.1199 51.758 37.7288 51.4986C38.3351 51.2343 38.9001 50.8797 39.3616 50.3677L41.0105 48.5117C41.781 49.4365 42.4025 50.1413 42.7511 50.5294L44.6308 52.6245L46.5104 50.5285C48.3066 48.5276 57.2624 38.2313 57.2624 32.0005C57.2624 30.7727 57.0779 29.5886 56.7496 28.4654C56.7875 28.4645 56.8213 28.4611 56.8616 28.4611C57.1741 28.4603 57.5563 28.5049 57.9043 28.5841C58.2513 28.6616 58.5678 28.7804 58.738 28.8773L61.4253 30.3703C61.4555 30.9109 61.4733 31.4533 61.4733 31.9998C61.4726 48.2516 48.2506 61.4736 31.9989 61.4736Z" fill="white"/>
</svg>
