<?xml version="1.0" encoding="utf-8"?>
<!-- Generator: Adobe Illustrator 22.0.1, SVG Export Plug-In . SVG Version: 6.00 Build 0)  -->
<svg version="1.1" id="Layer_1" xmlns="http://www.w3.org/2000/svg" xmlns:xlink="http://www.w3.org/1999/xlink" x="0px" y="0px"
	 viewBox="0 0 90 90" style="enable-background:new 0 0 90 90;" xml:space="preserve">
<style type="text/css">
	.st0{fill:#C50062;}
	.st1{fill:#FFFFFF;}
</style>
<circle class="st0" cx="45" cy="45" r="45"/>
<path class="st1" d="M45,12.7c-17.6,0-32,14.4-32,32.1s14.4,32.1,32,32.1s32-14.4,32-32.1c0-6.4-1.9-12.4-5.1-17.4l-1.2,1.2
	l-0.8,0.8c2.8,4.5,4.4,9.7,4.4,15.4C74.2,61,61.1,74.1,45,74.1S15.8,61,15.8,44.8c0-16.2,13.1-29.3,29.2-29.3
	c6.8,0,13.1,2.4,18.1,6.4v2.8l-3.4,3.4c-3.9-3.5-9.1-5.6-14.7-5.6c-12.3,0-22.3,10-22.3,22.3s10,22.3,22.3,22.3s22.3-10,22.3-22.3
	c0-4.6-1.4-9-3.9-12.5l-2,2c1.9,3,3.1,6.6,3.1,10.5c0,10.8-8.7,19.5-19.5,19.5s-19.5-8.8-19.5-19.5c0-10.8,8.7-19.5,19.5-19.5
	c4.9,0,9.3,1.8,12.7,4.8l-4.9,5c-2.1-1.7-4.8-2.8-7.8-2.8c-6.9,0-12.5,5.6-12.5,12.6S38.1,57.4,45,57.4c6.9,0,12.5-5.6,12.5-12.6
	c0-1.9-0.5-3.8-1.2-5.4l-2.1,2.1c0.4,1,0.6,2.1,0.6,3.3c0,5.4-4.4,9.8-9.7,9.8s-9.7-4.4-9.7-9.8S39.6,35,45,35c2.2,0,4.2,0.7,5.8,2
	l-5.1,5.1C45.5,42.1,45.2,42,45,42c-0.7,0-1.4,0.3-2,0.8c-0.5,0.5-0.8,1.2-0.8,2c0,0.7,0.3,1.5,0.8,2c0.5,0.5,1.2,0.8,2,0.8
	s1.4-0.3,2-0.8c0.5-0.5,0.8-1.2,0.8-2c0-0.2,0-0.5-0.1-0.7l17.4-17.4h3.6l7-7H70v-5.6l-5.4,5.4C59.2,15.3,52.4,12.7,45,12.7z"/>
</svg>
