<?xml version="1.0" encoding="utf-8"?>
<!-- Generator: Adobe Illustrator 22.0.1, SVG Export Plug-In . SVG Version: 6.00 Build 0)  -->
<svg version="1.1" id="Layer_1" xmlns="http://www.w3.org/2000/svg" xmlns:xlink="http://www.w3.org/1999/xlink" x="0px" y="0px"
	 viewBox="0 0 90 90" style="enable-background:new 0 0 90 90;" xml:space="preserve">
<style type="text/css">
	.st0{fill:#00A550;}
	.st1{fill:#FFFFFF;}
</style>
<circle class="st0" cx="45" cy="45" r="44.5"/>
<path class="st1" d="M45,13c-4.8,0-9.4,1.1-13.5,3c-2-1.9-4.6-3-7.6-3c-6,0-10.9,4.8-10.9,10.7c0,2.2,1.4,5,3,7.7
	c-1.9,4.1-3,8.7-3,13.6c0,17.7,14.3,32,32,32s32-14.3,32-32C77,27.3,62.7,13,45,13z M15.5,23.7c0-4.5,3.8-8.2,8.4-8.2
	c4.7,0,8.4,3.7,8.4,8.2c0,4.5-8.4,13.7-8.4,13.7S15.5,28.3,15.5,23.7z M15.5,45c0-3.9,0.8-7.7,2.2-11.2c1.9,2.5,3.7,4.6,4.4,5.3
	l1.9,2l1.9-2c1.5-1.6,9.1-10.1,9.1-15.4c0-2.1-0.6-4.1-1.7-5.7c2-0.9,4.2-1.6,6.4-2l-0.7,1.2c-0.3,0.6-0.5,1.2-0.5,1.9
	c0,0.8,0.2,1.6,0.7,2.3l0,0l1.9,2.7c0.1,0.1,0.2,0.4,0.3,0.8c0.1,0.3,0.1,0.7,0.1,1c0,0.1,0,0.2,0,0.3l0,0L41,28.9
	c0,0.2-0.2,0.5-0.4,0.8c-0.2,0.3-0.5,0.5-0.7,0.6l-3.4,1.6c-1.1,0.5-1.7,1.6-1.7,2.7c0,0.4,0.1,0.8,0.3,1.2l1.4,3.1
	c0.1,0.2,0.2,0.4,0.2,0.7c0.1,0.6,0.1,1.3,0,1.6l0,0.1l-0.4,1.7c-0.1,0.6-0.7,1.3-1.2,1.6L32.6,46c-0.1,0.1-0.4,0.1-0.7,0.1
	c-0.4,0-0.8-0.1-0.9-0.2l-2-1.3C28.3,44.2,27,44,26.3,44c-1,0.6-3.9,1.6-4.5,2.7c-1.2,2,1.4,3.4,1.9,4.9c0.1,0.4,0.2,0.9,0.1,1.1
	c-0.2,0.8-0.3,1.5-0.7,2.2c-0.4,0.8-1.1,1.3-1.8,1.9c-0.7,0.6-1.6,1.5-2.2,2.3C16.8,54.9,15.5,50.1,15.5,45z M36.7,68.3l-1.3,4.6
	c-6.1-2.1-11.3-6.2-14.9-11.4c0.1-0.1,0.2-0.3,0.4-0.5c0.5-0.6,1.5-1.7,2.1-2.2l1-0.9c1-0.9,1.7-2.2,2-3.5c0.1-0.6,0.3-1.2,0.3-1.9
	c0-0.6-0.1-1.2-0.3-1.7c-0.2-0.5-0.5-1.1-0.9-1.5L24,48l0,0l0-0.1l0.1,0l2-1.2l0,0c0.1-0.1,0.4-0.2,0.7-0.2c0.3,0,0.7,0.1,0.8,0.2
	l2,1.3c0.7,0.4,1.5,0.6,2.3,0.6c0.6,0,1.3-0.1,1.9-0.4l2.5-1.3c0.6-0.3,1.1-0.8,1.6-1.4c0.4-0.6,0.8-1.2,0.9-1.9l0.4-1.8
	c0.1-0.4,0.1-0.8,0.1-1.2c0-0.5,0-0.9-0.1-1.4c-0.1-0.5-0.2-0.9-0.4-1.3l-1.4-3.1l0,0l0-0.2c0-0.2,0.1-0.3,0.2-0.4l3.4-1.6
	c0.7-0.3,1.2-0.8,1.6-1.4c0.4-0.6,0.8-1.2,0.9-1.9l0.5-2.7l0,0c0-0.3,0.1-0.5,0.1-0.8c0-0.6-0.1-1.1-0.2-1.7
	c-0.2-0.5-0.4-1.1-0.7-1.5L41.2,20l0,0c-0.1-0.1-0.2-0.5-0.2-0.8c0-0.3,0.1-0.5,0.1-0.6l1.6-2.9c0.8-0.1,1.5-0.1,2.3-0.1
	c14.7,0,26.8,10.7,29.1,24.8L73,39.7c-0.5-0.3-1-0.4-1.5-0.5c-0.5-0.1-1.1-0.2-1.6-0.2c-0.3,0-0.6,0-0.9,0.1l-0.2,0
	c-2.1-4-6.3-6.7-11.1-6.7C50.7,32.4,45,38,45,45c0,4.3,4.2,10.4,7.4,14.5l-1.9,2.2c-0.1,0.1-0.4,0.4-0.7,0.5
	c-0.3,0.1-0.7,0.2-0.9,0.2l-0.1,0L45,62.1l-0.1,0l0,0v0l0-0.1l0,0l0.7-2.2c0.1-0.3,0.1-0.6,0.1-0.9c0-1.2-0.6-2.4-1.6-3l-1.5-0.9
	c-0.5-0.3-1.1-0.5-1.6-0.5c-0.9,0-1.9,0.4-2.5,1.2l-4.5,6c-0.4,0.5-0.6,1.2-0.6,1.8c0,0.9,0.4,1.8,1.2,2.4l1.6,1.2
	c0.1,0.1,0.2,0.2,0.3,0.4c0.1,0.2,0.1,0.4,0.1,0.6C36.7,68.2,36.7,68.2,36.7,68.3z M67.7,45c0,5.6-10.1,16.8-10.1,16.8
	S47.5,50.6,47.5,45c0-5.6,4.5-10.1,10.1-10.1C63.2,34.9,67.7,39.4,67.7,45z M45,74.5c-2.5,0-4.9-0.3-7.2-0.9l1.3-4.6
	c0.1-0.3,0.1-0.6,0.1-0.9c0-0.6-0.1-1.2-0.4-1.7c-0.2-0.5-0.6-1-1.1-1.4l-1.6-1.2c-0.2-0.1-0.2-0.4-0.1-0.6l4.5-6
	c0.5-0.7,1.8,0.5,2.2,0.8c0.3,0.2,0.5,0.7,0.4,1.1l-0.7,2.2c-0.1,0.3-0.1,0.5-0.1,0.8c0,0.7,0.2,1.3,0.7,1.8
	c0.4,0.5,1.1,0.7,1.7,0.8l3.7,0.3c0.1,0,0.2,0,0.3,0c0.7,0,1.3-0.2,1.9-0.4c0.6-0.3,1.2-0.6,1.6-1.1l1.6-1.9c0.8,0.9,1.4,1.6,1.7,2
	l1.9,2.1l1.9-2.1c1.8-2,10.8-12.3,10.8-18.5c0-1.2-0.2-2.4-0.5-3.5c0,0,0.1,0,0.1,0c0.3,0,0.7,0,1,0.1c0.3,0.1,0.7,0.2,0.8,0.3
	l2.7,1.5c0,0.5,0,1.1,0,1.6C74.5,61.3,61.3,74.5,45,74.5z"/>
</svg>
